<svg height="512pt" viewBox="0 0 512 512" width="512pt" xmlns="http://www.w3.org/2000/svg"><path d="m332.308594 241.230469h-152.617188c-24.429687 0-44.308594-19.875-44.308594-44.308594v-152.613281c0-24.433594 19.878907-44.308594 44.308594-44.308594h152.617188c24.429687 0 44.308594 19.875 44.308594 44.308594v152.613281c0 24.433594-19.878907 44.308594-44.308594 44.308594zm-152.617188-211.691407c-8.144531 0-14.769531 6.625-14.769531 14.769532v152.613281c0 8.144531 6.625 14.769531 14.769531 14.769531h152.617188c8.144531 0 14.769531-6.625 14.769531-14.769531v-152.613281c0-8.144532-6.625-14.769532-14.769531-14.769532zm0 0" fill="#ffb655"/><path d="m467.691406 512h-152.613281c-24.433594 0-44.308594-19.875-44.308594-44.308594v-152.613281c0-24.433594 19.875-44.308594 44.308594-44.308594h152.613281c24.433594 0 44.308594 19.875 44.308594 44.308594v152.613281c0 24.433594-19.875 44.308594-44.308594 44.308594zm-152.613281-211.691406c-8.144531 0-14.769531 6.625-14.769531 14.769531v152.613281c0 8.144532 6.625 14.769532 14.769531 14.769532h152.613281c8.144532 0 14.769532-6.625 14.769532-14.769532v-152.613281c0-8.144531-6.625-14.769531-14.769532-14.769531zm0 0" fill="#4895ff"/><path d="m196.921875 512h-152.613281c-24.433594 0-44.308594-19.875-44.308594-44.308594v-152.613281c0-24.433594 19.875-44.308594 44.308594-44.308594h152.613281c24.433594 0 44.308594 19.875 44.308594 44.308594v152.613281c0 24.433594-19.875 44.308594-44.308594 44.308594zm-152.613281-211.691406c-8.144532 0-14.769532 6.625-14.769532 14.769531v152.613281c0 8.144532 6.625 14.769532 14.769532 14.769532h152.613281c8.144531 0 14.769531-6.625 14.769531-14.769532v-152.613281c0-8.144531-6.625-14.769531-14.769531-14.769531zm0 0" fill="#d81b60"/><path d="m120.617188 461.851562c-3.78125 0-7.5625-1.441406-10.445313-4.328124l-55.695313-55.695313c-5.769531-5.765625-5.769531-15.121094 0-20.886719l55.695313-55.699218c5.765625-5.765626 15.121094-5.765626 20.886719 0l55.699218 55.699218c5.765626 5.765625 5.765626 15.117188 0 20.886719l-55.699218 55.695313c-2.882813 2.886718-6.664063 4.328124-10.441406 4.328124zm-34.8125-70.46875 34.8125 34.8125 34.808593-34.8125-34.808593-34.808593zm0 0" fill="#f06292"/><path d="m391.382812 455.382812c-35.289062 0-64-28.707031-64-64 0-35.289062 28.710938-64 64-64 35.292969 0 64 28.710938 64 64 0 35.292969-28.707031 64-64 64zm0-98.460937c-19 0-34.460937 15.460937-34.460937 34.460937 0 19.003907 15.460937 34.464844 34.460937 34.464844 19.003907 0 34.464844-15.460937 34.464844-34.464844 0-19-15.460937-34.460937-34.464844-34.460937zm0 0" fill="#7ed8f6"/><path d="m305.230469 184.617188h-98.460938c-5.121093 0-9.871093-2.652344-12.5625-7.007813-2.691406-4.351563-2.9375-9.789063-.648437-14.367187l49.230468-98.460938c2.503907-5.003906 7.617188-8.164062 13.210938-8.164062s10.707031 3.160156 13.210938 8.164062l49.230468 98.460938c2.289063 4.578124 2.042969 10.015624-.648437 14.367187-2.691407 4.355469-7.441407 7.007813-12.5625 7.007813zm-74.5625-29.539063h50.667969l-25.335938-50.667969zm0 0" fill="#fb8c00"/></svg>