<svg height="512pt" viewBox="0 0 512 512.0001" width="512pt" xmlns="http://www.w3.org/2000/svg"><path d="m59.914062 89.421875v255.136719h243.472657v-255.136719c0-52.585937-45.15625-93.816406-97.523438-89.046875l-17.046875 1.554688c-4.765625.433593-9.5625.433593-14.328125 0l-17.046875-1.554688c-52.371094-4.769531-97.527344 36.460938-97.527344 89.046875zm0 0" fill="#fdbd37"/><path d="m205.863281.375-17.050781 1.554688c-1.984375.179687-3.972656.265624-5.960938.296874 39.464844 9.003907 69.480469 44.324219 69.480469 87.191407v255.140625h51.054688v-255.136719c0-52.585937-45.15625-93.816406-97.523438-89.046875zm0 0" fill="#fa9a39"/><path d="m330.226562 326.550781c-28.425781-14.429687-58.429687-24.460937-89.050781-30.105469-11.855469-2.183593-20.441406-12.542968-20.441406-24.597656v-47.820312h-78.164063v47.820312c0 12.054688-8.589843 22.414063-20.445312 24.597656-30.617188 5.644532-60.621094 15.675782-89.046875 30.105469-20.292969 10.300781-33.078125 31.128907-33.078125 53.886719v124.859375c0 3.703125 3.003906 6.703125 6.703125 6.703125h356.597656v-131.5625c0-22.757812-12.785156-43.585938-33.074219-53.886719zm0 0" fill="#fed6a6"/><path d="m330.226562 326.550781c-28.425781-14.429687-58.429687-24.460937-89.050781-30.105469-11.855469-2.183593-20.441406-12.542968-20.441406-24.597656v-47.820312h-51.257813v81.582031c0 12.054687 8.589844 22.414063 20.445313 24.597656 30.621094 5.644531 60.621094 15.675781 89.046875 30.105469 20.292969 10.300781 33.078125 31.128906 33.078125 53.886719v97.800781h51.253906v-131.5625c0-22.757812-12.785156-43.585938-33.074219-53.886719zm0 0" fill="#efc79c"/><path d="m95.945312 113.613281h-14.207031c-12.058593 0-21.824219 9.777344-21.824219 21.835938v10.328125c0 12.058594 9.765626 21.835937 21.824219 21.835937h14.207031zm0 0" fill="#fed6a6"/><path d="m267.355469 113.613281h14.210937c12.058594 0 21.820313 9.777344 21.820313 21.835938v10.328125c0 12.058594-9.761719 21.835937-21.820313 21.835937h-14.210937zm0 0" fill="#fed6a6"/><path d="m179.574219 61.179688c-33.863281 32.4375-76.542969 39.679687-87.398438 41.039062-1.492187.1875-2.597656 1.457031-2.59375 2.957031l.285157 74.542969c0 61.019531 64.054687 89.75 91.78125 90.34375 27.734374-.59375 91.785156-29.324219 91.785156-90.34375l.285156-74.542969c.003906-1.5-1.101562-2.769531-2.59375-2.957031-10.855469-1.359375-53.535156-8.601562-87.398438-41.039062-1.164062-1.121094-2.988281-1.121094-4.152343 0zm0 0" fill="#ffe3c2"/><path d="m271.125 102.21875c-6.875-.863281-26.523438-4.09375-48.605469-14.582031l-.140625 92.082031c0 46.027344-36.445312 73.679688-66.253906 84.746094 9.707031 3.601562 18.714844 5.453125 25.527344 5.597656 27.730468-.59375 91.78125-29.324219 91.78125-90.34375l.285156-74.542969c.007812-1.5-1.101562-2.769531-2.59375-2.957031zm0 0" fill="#f7d6b5"/><path d="m189.816406 187.214844h-6.761718c-6.039063 0-10.953126-4.914063-10.953126-10.957032v-20.519531c0-4.269531 3.457032-7.726562 7.726563-7.726562 4.265625 0 7.726563 3.457031 7.726563 7.726562v16.023438h2.261718c4.269532 0 7.726563 3.457031 7.726563 7.726562 0 4.265625-3.457031 7.726563-7.726563 7.726563zm0 0" fill="#d08f61"/><path d="m181.65625 231.753906c-15.738281 0-30-7.09375-37.222656-18.503906-2.28125-3.609375-1.207032-8.378906 2.398437-10.660156 3.609375-2.285156 8.378907-1.210938 10.660157 2.394531 4.351562 6.875 13.832031 11.316406 24.164062 11.316406 10.328125 0 19.8125-4.441406 24.160156-11.316406 2.28125-3.605469 7.050782-4.679687 10.660156-2.394531 3.605469 2.28125 4.679688 7.050781 2.398438 10.660156-7.222656 11.410156-21.484375 18.503906-37.21875 18.503906zm0 0" fill="#c35f58"/><path d="m228.636719 153.722656c-4.269531 0-7.726563-3.457031-7.726563-7.726562v-9.347656c0-4.269532 3.457032-7.726563 7.726563-7.726563 4.265625 0 7.722656 3.457031 7.722656 7.726563v9.347656c.003906 4.269531-3.457031 7.726562-7.722656 7.726562zm0 0" fill="#844535"/><path d="m134.667969 153.722656c-4.269531 0-7.726563-3.457031-7.726563-7.726562v-9.347656c0-4.269532 3.457032-7.726563 7.726563-7.726563 4.265625 0 7.726562 3.457031 7.726562 7.726563v9.347656c0 4.269531-3.460937 7.726562-7.726562 7.726562zm0 0" fill="#844535"/><path d="m330.226562 326.550781c-19.425781-9.859375-39.59375-17.664062-60.183593-23.421875-11.300781 18.144532-47.3125 31.414063-89.996094 31.414063-42.074219 0-77.671875-12.894531-89.5-30.640625-19.652344 5.675781-38.898437 13.222656-57.46875 22.648437-20.292969 10.300781-33.078125 31.128907-33.078125 53.886719v124.859375c0 3.703125 3.003906 6.703125 6.703125 6.703125h356.597656v-131.5625c0-22.757812-12.785156-43.585938-33.074219-53.886719zm0 0" fill="#ff94a6"/><path d="m330.226562 326.550781c-19.425781-9.859375-39.59375-17.664062-60.183593-23.421875-9.117188 14.640625-34.324219 26.101563-66.136719 29.984375 25.761719 5.917969 50.980469 14.976563 75.066406 27.199219 20.289063 10.300781 33.074219 31.128906 33.074219 53.886719v97.800781h51.257813v-131.5625c-.003907-22.757812-12.789063-43.585938-33.078126-53.886719zm0 0" fill="#f4849c"/><path d="m56.933594 416.28125c-4.269532 0-7.726563 3.457031-7.726563 7.726562v87.992188h15.453125v-87.992188c-.003906-4.269531-3.460937-7.726562-7.726562-7.726562zm0 0" fill="#f4849c"/><path d="m281.59375 235.230469v122.105469c0 4.574218 3.707031 8.285156 8.285156 8.285156h100.054688c42.257812 0 76.519531-34.257813 76.519531-76.519532v-53.871093c0-39.925781-34.289063-71.226563-74.050781-67.605469h-36.765625c-39.757813-3.621094-74.042969 27.683594-74.042969 67.605469zm0 0" fill="#fdbd37"/><path d="m486.828125 415.277344c-21.554687-10.941406-44.308594-18.554688-67.527344-22.839844-9.03125-1.667969-15.605469-9.507812-15.605469-18.695312v-36.308594h-59.347656v36.308594c0 9.1875-6.570312 17.027343-15.605468 18.695312-23.21875 4.285156-45.96875 11.898438-67.527344 22.839844-13.8125 9.210937-25.113282 30.328125-25.113282 46.929687v49.792969h269.136719c3.703125 0 6.707031-3 6.707031-6.703125v-43.089844c0-16.601562-11.300781-37.71875-25.117187-46.929687zm0 0" fill="#fed6a6"/><path d="m486.828125 415.277344c-21.554687-10.941406-44.308594-18.554688-67.527344-22.84375-9.03125-1.667969-15.605469-9.503906-15.605469-18.691406v-36.308594h-51.054687v59.308594c0 6.027343 4.363281 11.167968 10.308594 12.132812 25.054687 4.070312 49.628906 11.988281 72.824219 23.761719l2.984374 1.992187c12.171876 8.113282 22.128907 26.71875 22.128907 41.347656v36.023438h44.351562c3.703125 0 6.707031-3 6.707031-6.703125v-43.089844c0-16.601562-11.300781-37.71875-25.117187-46.929687zm0 0" fill="#efc79c"/><path d="m308.949219 253.601562h-10.789063c-9.152344 0-16.566406 7.425782-16.566406 16.578126v7.84375c0 9.15625 7.410156 16.578124 16.566406 16.578124h10.789063zm0 0" fill="#fed6a6"/><path d="m439.09375 253.601562h10.789062c9.15625 0 16.570313 7.425782 16.570313 16.578126v7.84375c0 9.15625-7.414063 16.578124-16.570313 16.578124h-10.789062zm0 0" fill="#fed6a6"/><path d="m397.835938 208.167969c-14.921876 45.421875-71.835938 40.433593-88.875 37.847656-2.546876-.382813-4.839844 1.582031-4.832032 4.15625l.207032 53.625c0 46.328125 48.632812 68.140625 69.6875 68.589844 21.054687-.449219 69.6875-22.261719 69.6875-68.589844l.222656-73.714844s-16.207032 7.976563-46.097656-21.914062zm0 0" fill="#ffe3c2"/><path d="m380.222656 311.34375h-5.132812c-5.613282 0-10.179688-4.566406-10.179688-10.175781v-15.582031c0-4.269532 3.460938-7.726563 7.726563-7.726563s7.726562 3.460937 7.726562 7.726563v10.308593c4.203125.074219 7.585938 3.503907 7.585938 7.722657 0 4.269531-3.457031 7.726562-7.726563 7.726562zm0 0" fill="#d08f61"/><path d="m374.023438 345.160156c-12.578126 0-24.007813-5.714844-29.832032-14.914062-2.28125-3.605469-1.207031-8.378906 2.398438-10.660156 3.609375-2.28125 8.378906-1.207032 10.660156 2.394531 2.972656 4.695312 9.554688 7.726562 16.773438 7.726562 7.222656 0 13.804687-3.03125 16.777343-7.726562 2.28125-3.605469 7.050781-4.675781 10.660157-2.394531 3.605468 2.28125 4.679687 7.054687 2.394531 10.660156-5.820313 9.199218-17.25 14.914062-29.832031 14.914062zm0 0" fill="#c35f58"/><path d="m409.695312 285.917969c-4.265624 0-7.726562-3.460938-7.726562-7.726563v-4.550781c0-4.265625 3.460938-7.726563 7.726562-7.726563 4.269532 0 7.726563 3.460938 7.726563 7.726563v4.550781c0 4.265625-3.457031 7.726563-7.726563 7.726563zm0 0" fill="#844535"/><path d="m338.347656 285.917969c-4.265625 0-7.722656-3.460938-7.722656-7.726563v-4.550781c0-4.265625 3.457031-7.726563 7.722656-7.726563 4.269532 0 7.726563 3.460938 7.726563 7.726563v4.550781c0 4.265625-3.457031 7.726563-7.726563 7.726563zm0 0" fill="#844535"/><path d="m486.828125 415.277344c-14.75-7.484375-30.058594-13.410156-45.691406-17.78125-8.582031 13.777344-35.925781 23.851562-68.332031 23.851562-31.945313 0-58.972657-9.789062-67.953126-23.265625-14.921874 4.308594-29.535156 10.039063-43.636718 17.195313-13.8125 9.210937-25.113282 30.328125-25.113282 46.929687v49.792969h269.136719c3.703125 0 6.707031-3 6.707031-6.703125v-43.089844c0-16.601562-11.300781-37.71875-25.117187-46.929687zm0 0" fill="#80c56e"/><path d="m511.945312 505.296875v-43.089844c0-16.601562-11.300781-37.71875-25.117187-46.929687-14.75-7.484375-30.058594-13.410156-45.691406-17.78125-5.84375 9.378906-20.382813 17.035156-39.289063 20.972656 11.554688 3.855469 22.898438 8.570312 33.925782 14.167969l2.984374 1.992187c12.171876 8.113282 22.128907 26.71875 22.128907 41.347656v36.023438h44.351562c3.703125 0 6.707031-3 6.707031-6.703125zm0 0" fill="#70b25d"/><path d="m402.515625 220.648438-24.425781 1.003906c-8.515625.347656-14.503906-8.277344-11.195313-16.132813l8.875-21.085937c3.304688-7.855469 13.660157-9.605469 19.363281-3.273438l16.355469 18.167969zm0 0" fill="#fc6a58"/><path d="m420.300781 228.136719 16.355469 18.164062c5.703125 6.335938 16.054688 4.585938 19.363281-3.269531l8.875-21.085938c3.304688-7.855468-2.679687-16.480468-11.195312-16.132812l-24.425781 1zm0 0" fill="#fc6a58"/><path d="m417.648438 229.089844-13.960938-5.878906c-1.734375-.730469-2.550781-2.726563-1.820312-4.460938l7.8125-18.558594c.726562-1.730468 2.726562-2.546875 4.460937-1.816406l13.960937 5.875c1.734376.730469 2.550782 2.730469 1.820313 4.464844l-7.8125 18.554687c-.730469 1.734375-2.726563 2.550781-4.460937 1.820313zm0 0" fill="#e35052"/><path d="m284.886719 512v-33.992188c0-4.269531-3.460938-7.726562-7.726563-7.726562-4.269531 0-7.726562 3.457031-7.726562 7.726562v33.992188zm0 0" fill="#70b25d"/></svg>